<svg xmlns="http://www.w3.org/2000/svg" xmlns:xlink="http://www.w3.org/1999/xlink" width="289" height="97" viewBox="0 0 289 97">
    <defs>
        <path id="2gyl4eaama" d="M0.659 0.527L39.582 0.527 39.582 42.882 0.659 42.882z"/>
    </defs>
    <g fill="none" fill-rule="evenodd">
        <g>
            <g>
                <g transform="translate(-576 -648) translate(576 648) translate(126 .473)">
                    <mask id="0abdr7gcrb" fill="#fff">
                        <use xlink:href="#2gyl4eaama"/>
                    </mask>
                    <path fill="#EEA949" d="M32.944 42.882c-1.84 0-3.671-.76-4.983-2.248L2.32 11.56C-.106 8.81.157 4.612 2.908 2.187 5.658-.24 9.856.024 12.28 2.775L37.92 31.85c2.427 2.751 2.164 6.947-.587 9.373-1.263 1.113-2.83 1.66-4.39 1.66" mask="url(#0abdr7gcrb)"/>
                </g>
                <path fill="#FFF" d="M228.52 65.525h-57.554c-10.479 0-18.974-8.495-18.974-18.974 0-10.48 8.495-18.974 18.974-18.974h57.554c10.48 0 18.974 8.495 18.974 18.974 0 10.479-8.495 18.974-18.974 18.974" transform="translate(-576 -648) translate(576 648)"/>
                <path fill="#FEFEFE" d="M286.559 22.97c0 5.793-4.697 10.49-10.49 10.49h-17.752c-5.793 0-10.49-4.697-10.49-10.49 0-5.794 4.697-10.49 10.49-10.49h17.752c5.793 0 10.49 4.696 10.49 10.49" transform="translate(-576 -648) translate(576 648)"/>
                <path fill="#020303" d="M255.178 86.868c-6.288 0-11.384-5.097-11.384-11.384V26.318c0-6.287 5.096-11.385 11.384-11.385s11.385 5.098 11.385 11.385v49.166c0 6.287-5.097 11.384-11.385 11.384" transform="translate(-576 -648) translate(576 648)"/>
                <path fill="#FFF" d="M279.45 29.489s-46.974 19.792-51.18 11.533c-1.763-3.462-2.757-7.382-2.757-11.533 0-14.055 11.393-25.448 25.447-25.448h3.042c14.054 0 25.448 11.393 25.448 25.448" transform="translate(-576 -648) translate(576 648)"/>
                <path fill="#FFF" d="M220.344 61.84c-2.464 0-4.831-1.378-5.98-3.743-1.601-3.3-.224-7.273 3.076-8.874l59.228-28.743c3.3-1.602 7.272-.224 8.874 3.075 1.6 3.3.224 7.273-3.075 8.875l-59.228 28.742c-.934.453-1.922.668-2.895.668" transform="translate(-576 -648) translate(576 648)"/>
                <path fill="#020303" d="M259.865 11.837c-.07 0-.144-.02-.207-.064-.166-.115-.209-.342-.094-.508.58-.846 1.453-1.416 2.462-1.605 1.007-.188 2.028.028 2.875.607.166.114.21.341.095.508-.114.166-.342.208-.508.095-.685-.469-1.512-.643-2.328-.49-.816.151-1.524.613-1.993 1.298-.07.103-.186.16-.302.16" transform="translate(-576 -648) translate(576 648)"/>
                <path fill="#FFF" d="M153.185 96.316h-11.892c-2.369 0-4.559-1.263-5.745-3.313-1.189-2.051-1.194-4.58-.013-6.634l20.185-35.165c1.826-3.181 5.885-4.281 9.066-2.454 3.18 1.826 4.279 5.884 2.452 9.065l-14.475 25.219h.422c3.667 0 6.64 2.973 6.64 6.64 0 3.668-2.972 6.642-6.64 6.642" transform="translate(-576 -648) translate(576 648)"/>
                <path fill="#FEFEFE" d="M226.937 94.131c-2.793 0-5.392-1.775-6.309-4.573l-2.314-7.057c-.943-2.875.177-6.024 2.723-7.658l11.665-7.488-3.373-10.879c-1.086-3.504.874-7.224 4.377-8.31 3.503-1.086 7.224.873 8.31 4.377l4.868 15.705c.884 2.852-.243 5.943-2.756 7.555l-11.592 7.441.713 2.174c1.142 3.485-.756 7.237-4.242 8.38-.687.226-1.384.333-2.07.333" transform="translate(-576 -648) translate(576 648)"/>
                <path fill="#FFF" d="M250.522 96.252h-11.068c-2.676 0-5.09-1.605-6.124-4.072l-15.812-37.696c-1.42-3.38.173-7.274 3.555-8.692 3.383-1.419 7.274.173 8.693 3.555L243.87 82.97h6.652c3.667 0 6.64 2.973 6.64 6.641 0 3.667-2.973 6.641-6.64 6.641M195.167 96.252h-11.068c-2.675 0-5.09-1.605-6.124-4.072l-15.812-37.696c-1.42-3.38.173-7.274 3.555-8.692 3.383-1.419 7.274.173 8.693 3.555l14.104 33.623h6.652c3.668 0 6.64 2.973 6.64 6.641 0 3.667-2.972 6.641-6.64 6.641" transform="translate(-576 -648) translate(576 648)"/>
                <path fill="#020303" d="M40.086 83.8c0 6.877-5.576 12.452-12.454 12.452-6.878 0-12.453-5.575-12.453-12.453 0-6.878 5.575-12.454 12.453-12.454 6.878 0 12.454 5.576 12.454 12.454" transform="translate(-576 -648) translate(576 648)"/>
                <path fill="#020303" d="M27.633 71.567c-6.745 0-12.232 5.487-12.232 12.232 0 6.746 5.487 12.233 12.232 12.233 6.745 0 12.232-5.487 12.232-12.233 0-6.745-5.487-12.232-12.232-12.232m0 24.906c-6.99 0-12.674-5.685-12.674-12.674 0-6.99 5.685-12.674 12.674-12.674s12.675 5.685 12.675 12.674-5.686 12.674-12.675 12.674M98.906 83.8c0 6.877-5.576 12.452-12.454 12.452C79.574 96.252 74 90.677 74 83.8c0-6.878 5.575-12.454 12.453-12.454 6.878 0 12.454 5.576 12.454 12.454" transform="translate(-576 -648) translate(576 648)"/>
                <path fill="#020303" d="M86.453 71.567c-6.745 0-12.232 5.487-12.232 12.232 0 6.746 5.487 12.233 12.232 12.233 6.745 0 12.232-5.487 12.232-12.233 0-6.745-5.487-12.232-12.232-12.232m0 24.906c-6.99 0-12.674-5.685-12.674-12.674 0-6.99 5.685-12.674 12.674-12.674s12.675 5.685 12.675 12.674-5.686 12.674-12.675 12.674" transform="translate(-576 -648) translate(576 648)"/>
                <path fill="#020303" d="M13.281 83.799L100.942 83.799 100.942 68.93 13.281 68.93z" transform="translate(-576 -648) translate(576 648)"/>
                <path fill="#FFF" d="M3.225 83.799L90.886 83.799 90.886 68.93 3.225 68.93z" transform="translate(-576 -648) translate(576 648)"/>
                <path fill="#020303" d="M29.84 83.8c0 6.877-5.576 12.452-12.454 12.452-6.878 0-12.453-5.575-12.453-12.453 0-6.878 5.575-12.454 12.453-12.454 6.878 0 12.454 5.576 12.454 12.454" transform="translate(-576 -648) translate(576 648)"/>
                <path fill="#E2E2E2" d="M22.883 83.8c0 3.034-2.46 5.495-5.497 5.495-3.035 0-5.496-2.46-5.496-5.496 0-3.036 2.461-5.497 5.496-5.497 3.036 0 5.497 2.461 5.497 5.497" transform="translate(-576 -648) translate(576 648)"/>
                <path fill="#FEFEFE" d="M20.847 83.8c0 1.91-1.55 3.458-3.46 3.458-1.911 0-3.46-1.549-3.46-3.459 0-1.91 1.549-3.46 3.46-3.46 1.91 0 3.46 1.55 3.46 3.46" transform="translate(-576 -648) translate(576 648)"/>
                <path fill="#020303" d="M88.66 83.8c0 6.877-5.576 12.452-12.454 12.452-6.878 0-12.453-5.575-12.453-12.453 0-6.878 5.575-12.454 12.453-12.454 6.878 0 12.454 5.576 12.454 12.454" transform="translate(-576 -648) translate(576 648)"/>
                <path fill="#E2E2E2" d="M81.703 83.8c0 3.034-2.461 5.495-5.497 5.495-3.035 0-5.496-2.46-5.496-5.496 0-3.036 2.461-5.497 5.496-5.497 3.036 0 5.497 2.461 5.497 5.497" transform="translate(-576 -648) translate(576 648)"/>
                <path fill="#FEFEFE" d="M79.666 83.8c0 1.91-1.549 3.458-3.46 3.458-1.91 0-3.459-1.549-3.459-3.459 0-1.91 1.548-3.46 3.46-3.46 1.91 0 3.46 1.55 3.46 3.46" transform="translate(-576 -648) translate(576 648)"/>
                <path fill="#020303" d="M11.385 68.93L105.117 68.93 105.117 43.315 11.385 43.315z" transform="translate(-576 -648) translate(576 648)"/>
                <path fill="#EEA949" d="M0 68.93L93.732 68.93 93.732 43.315 0 43.315z" transform="translate(-576 -648) translate(576 648)"/>
                <path fill="#020303" d="M83.676 51.677H8.539c-.217 0-.394-.177-.394-.394 0-.216.177-.393.394-.393h75.137c.217 0 .394.177.394.393 0 .217-.177.394-.394.394M83.676 59.835H8.539c-.217 0-.394-.176-.394-.393 0-.217.177-.393.394-.393h75.137c.217 0 .394.176.394.393 0 .217-.177.393-.394.393" transform="translate(-576 -648) translate(576 648)"/>
                <path fill="#FFF" d="M96.958 80.216L112.403 80.216 112.403 75.15 96.958 75.15z" transform="translate(-576 -648) translate(576 648)"/>
                <path fill="#EEA949" d="M111.031 78.966c-.458 0-.878-.304-1.006-.767-.153-.555.174-1.129.73-1.283l169.74-46.735-.803 26.267c-.018.577-.5 1.033-1.075 1.011-.576-.017-1.029-.498-1.01-1.074l.715-23.44-167.014 45.984c-.092.025-.185.037-.277.037" transform="translate(-576 -648) translate(576 648)"/>
                <path fill="#FFF" d="M287.332 23.8c0 4.982-4.039 9.021-9.02 9.021-4.982 0-9.022-4.039-9.022-9.02 0-4.982 4.04-9.022 9.021-9.022 4.982 0 9.021 4.04 9.021 9.021" transform="translate(-576 -648) translate(576 648)"/>
                <path fill="#020303" d="M280.546 33.581h-.009c-2.803-.066-8.545-1.074-10.219-4.407-.097-.194-.019-.43.175-.527.195-.098.431-.02.53.175 1.395 2.78 6.465 3.9 9.532 3.973.218.005.39.185.384.402-.005.214-.18.384-.393.384M288.403 16.887c0 2.17-1.759 3.93-3.929 3.93-2.169 0-3.928-1.76-3.928-3.93s1.76-3.929 3.928-3.929c2.17 0 3.93 1.76 3.93 3.93" transform="translate(-576 -648) translate(576 648)"/>
                <path fill="#EEA949" d="M241.707 89.714c-7.86 0-14.23-6.37-14.23-14.23V26.318c0-7.86 6.37-14.23 14.23-14.23 7.858 0 14.23 6.37 14.23 14.23v49.166c0 7.86-6.372 14.23-14.23 14.23" transform="translate(-576 -648) translate(576 648)"/>
            </g>
        </g>
    </g>
</svg>
