<svg xmlns="http://www.w3.org/2000/svg" xmlns:xlink="http://www.w3.org/1999/xlink" width="127" height="127" viewBox="0 0 127 127">
    <defs>
        <path id="03pyyrdkuc" d="M0.015 0.136L23.115 0.136 23.115 17.151 0.015 17.151z"/>
        <path id="4pybh32h5e" d="M0 0.136L62.297 0.136 62.297 25.931 0 25.931z"/>
        <circle id="voxlmozopa" cx="63.5" cy="63.5" r="63.5"/>
    </defs>
    <g fill="none" fill-rule="evenodd">
        <g>
            <g>
                <g transform="translate(-331 -1469) translate(331 1338) translate(0 131)">
                    <mask id="94zbmhymnb" fill="#fff">
                        <use xlink:href="#voxlmozopa"/>
                    </mask>
                    <use fill="#D72D35" xlink:href="#voxlmozopa"/>
                    <path fill="#F0D6D3" d="M72.66 77.224s-5.427 2.903-9.585 2.903c-4.158 0-9.354-2.903-9.354-2.903L50.004 65.74V42.424h26.657v19.91l-4.001 14.89z" mask="url(#94zbmhymnb)"/>
                    <g mask="url(#94zbmhymnb)">
                        <g>
                            <path fill="#F0D6D3" d="M51.462 27.202c0 7.312-.035 23.921-13.323 23.921-13.332 0-13.332-16.61-13.332-23.921 0-7.312 0-18.575 13.327-18.575 13.328 0 13.328 11.263 13.328 18.575" transform="translate(25.181 16.422)"/>
                            <path fill="#4F4E4F" d="M42.103 25.29s.788-.633 1.575-.633c.788 0 1.575.632 1.575.632 0-.778-.705-1.575-1.575-1.575s-1.575.797-1.575 1.575M34.6 25.29s-.787-.633-1.575-.633c-.788 0-1.575.632-1.575.632 0-.778.705-1.575 1.575-1.575s1.576.797 1.576 1.575" transform="translate(25.181 16.422)"/>
                            <path fill="#ADB4C5" d="M27.547 13.837L25.017 13.065 25.017 21.826 27.547 17.151zM49.145 13.837L51.285 13.065 51.285 21.826 49.145 17.151z" transform="translate(25.181 16.422)"/>
                            <g transform="translate(25.181 16.422) translate(22.22)">
                                <mask id="4ho9ebxa3d" fill="#fff">
                                    <use xlink:href="#03pyyrdkuc"/>
                                </mask>
                                <path fill="#4F4E4F" d="M23.115 9.472c0 10.095-23.1 10.386-23.1-.017C5.36 11.232 1.888 1.176 13.26.17c5.42-.48 9.856 4.164 9.856 9.302" mask="url(#4ho9ebxa3d)"/>
                            </g>
                            <path fill="#4F4E4F" d="M53.086 12.77c0 2.802-.756 3.131-1.8 5.98-.52-5.17-7.26-3.394-7.26-6.197 0-2.802 1.184-4.858 3.987-4.858 2.802 0 5.073 2.272 5.073 5.075" transform="translate(25.181 16.422)"/>
                            <path fill="#F0D6D3" d="M25.55 22.694c0 .64-.518 1.157-1.157 1.157-.64 0-1.158-.518-1.158-1.157 0-.64.519-1.158 1.158-1.158.64 0 1.158.518 1.158 1.158M52.644 22.694c0 .64-.52 1.157-1.159 1.157s-1.157-.518-1.157-1.157c0-.64.518-1.158 1.157-1.158.64 0 1.159.518 1.159 1.158" transform="translate(25.181 16.422)"/>
                            <path fill="#FEFEFE" d="M40.54 32.925c0 1.29-1.045 1.946-2.335 1.946s-2.334-.657-2.334-1.946c0-1.29 1.045-2.335 2.334-2.335 1.29 0 2.335 1.045 2.335 2.335" transform="translate(25.181 16.422)"/>
                            <path fill="#4F4E4F" d="M39.369 27.979c.032 0-.06.003.127.005 0 0 2.377 3.217 8.168 1.291-.517.31-4.27 3.657-6.62 3.624-2.222-.03-3.25-1.583-3.713-2.89-.375-1.057.917-2.03 2.038-2.03" transform="translate(25.181 16.422)"/>
                            <path fill="#4F4E4F" d="M37.253 27.979c-.032 0 .06.003-.128.005 0 0-2.376 3.217-8.167 1.291.517.31 4.269 3.657 6.619 3.624 2.222-.03 3.25-1.583 3.714-2.89.374-1.057-.917-2.03-2.038-2.03" transform="translate(25.181 16.422)"/>
                            <path fill="#F0D6D3" d="M41.246 27.741c0 1.527-1.238 2.765-2.765 2.765-1.527 0-2.765-1.238-2.765-2.765 0-1.527 1.238-2.765 2.765-2.765 1.527 0 2.765 1.238 2.765 2.765" transform="translate(25.181 16.422)"/>
                            <path fill="#FEFEFE" d="M76.019 78.072L0.131 83.592 1.957 60.261 10.816 56.215 24.272 50.373 51.57 50.706 63.53 54.279 73.411 57.941z" transform="translate(25.181 16.422)"/>
                            <path fill="#FEFEFE" d="M52.376 55.344L38.28 69.368 24.304 54.175 24.077 50.276 24.815 43.269 35.288 48.509 38.076 51.129 41.333 48.486 51.511 43.269 52.122 50.05z" transform="translate(25.181 16.422)"/>
                            <path fill="#D62D35" d="M40.211 83.947L36.236 83.947 34.508 70.149 36.236 56.35 40.211 56.35 41.938 70.149z" transform="translate(25.181 16.422)"/>
                            <path fill="#D12924" d="M40.671 57.187L35.654 57.187" transform="translate(25.181 16.422)"/>
                            <path fill="#38408E" d="M62.218 78.397l5.111.435-53.919.84-2.594-23.394L24 50.224l14.282 16.292 13.84-16.458 11.408 4.225-1.312 24.114z" transform="translate(25.181 16.422)"/>
                            <path fill="#F9DFDC" d="M51.497 89.83c-7.369 0-30.073 1.524-41.58.229-4.58-.516-3.187-7.826-.562-11.613 2.627-3.788 7.826-4.729 11.613-2.103 1.328.92 6.73 3.76 20.532 1.673 9.566-1.446 17.464-4.483 20.017-6.179 3.84-2.55 12.64-1.022 14.342 3.261 1.767 4.447-1.27 8.094-5.11 10.644-5.52 3.665-15.175 4.088-19.252 4.088" transform="translate(25.181 16.422)"/>
                            <g transform="translate(25.181 16.422) translate(0 66.659)">
                                <mask id="xizsgkguxf" fill="#fff">
                                    <use xlink:href="#4pybh32h5e"/>
                                </mask>
                                <path fill="#F9DFDC" d="M8.336 25.931c-4.022 0-7.564-2.915-8.228-7.014-.735-4.55 2.356-8.834 6.906-9.57 1.711-.277 5.885-2.025 9.567-3.568C24.304 2.543 39.08.619 43.12.229c4.041-.388 10.94.434 15.64 2.48 4.227 1.839 3.35 4.88 3.526 7.775.28 4.6-5.016 6.53-8.662 3.71-7.08-5.478-21.837 3.31-30.595 6.978-5.41 2.267-9.683 4.057-13.351 4.65-.451.074-.9.11-1.343.11" mask="url(#xizsgkguxf)"/>
                            </g>
                            <path fill="#55514F" d="M44.232 89.043c-4.614.192-11.177 1.042-19.214 1.13-4.724.051-3.593-1.388-.82-3.083l-.024.002c5.58-3.457 16.631-8.345 23.715-11.081 7.852-3.034 9.926-2.658 13.725-3.875l-.048-.43c-5.533 1.338-9.934 2.541-12.4 1.77-7.637 3.812-17.056 7.734-25.213 11.56-6.151 2.885-11.38 6.162-15.732 6.78-1.335.19-3.24-.01-4.662-.737.315.368 3.08 1.511 4.777 1.511.443 0 .892-.035 1.343-.109 2.303-.372 5.067-.807 8.004-1.896 11.972.445 27.874-.155 33.814-.155 4.076 0 13.732-1.023 19.252-4.688-9.562 2.992-12.481 2.716-26.517 3.3" transform="translate(25.181 16.422)"/>
                            <path fill="#D62D35" d="M36.147 56.611L34.071 54.259 36.147 48.824 40.299 48.824 42.375 54.259 40.299 56.468" transform="translate(25.181 16.422)"/>
                        </g>
                    </g>
                </g>
            </g>
        </g>
    </g>
</svg>
